# File generated by IfcOpenShell 0.5.0-rc1
mtllib Basement+46+IfcSlab+2VhBvaRbvA9e_fFapMbEkv.mtl
g product-9facbe64-6e5e-4a26-8fa9-3e4cd694ebb9-body
s 1
v -8.14706220771224 4.72388793106946 15.3721737307859
v -8.14706220771224 4.72388793106946 15.220520470438
v -8.14706220771224 4.72388793106946 15.2188489882915
v -8.14706220771224 6.75354810009936 14.9166752575055
v -8.14706220771224 6.75354810009936 14.918346739652
v -8.14706220771224 6.75354810009936 15.07
v -8.14706220771224 6.75354810009936 15.07
v -8.14706220771224 6.75354810009936 14.918346739652
v -8.14706220771224 6.75354810009936 14.9166752575055
v -4.54706220771224 6.75354810009936 14.9166752575055
v -4.54706220771224 6.75354810009936 14.918346739652
v -4.54706220771224 6.75354810009936 15.07
v -4.54706220771224 6.75354810009936 15.07
v -4.54706220771224 6.75354810009936 14.918346739652
v -4.54706220771224 6.75354810009936 14.9166752575055
v -5.21972244965416 5.32388793106946 15.1295216017476
v -5.21972244965416 5.32388793106946 15.1311930838941
v -5.21972244965416 5.32388793106946 15.2828463442421
v -5.21972244965416 5.32388793106946 15.2828463442421
v -5.21972244965416 5.32388793106946 15.1311930838941
v -5.21972244965416 5.32388793106946 15.1295216017476
v -5.21972244965416 4.72388793106946 15.2188489882915
v -5.21972244965416 4.72388793106946 15.220520470438
v -5.21972244965416 4.72388793106946 15.3721737307859
v -5.21972244965416 4.72388793106946 15.3721737307859
v -5.21972244965416 4.72388793106946 15.220520470438
v -5.21972244965416 4.72388793106946 15.2188489882915
v -8.14706220771224 4.72388793106946 15.2188489882915
v -8.14706220771224 4.72388793106946 15.220520470438
v -8.14706220771224 4.72388793106946 15.3721737307859
v -8.14706220771224 4.72388793106946 15.3721737307859
v -8.14706220771224 6.75354810009936 15.07
v -4.54706220771224 6.75354810009936 15.07
v -5.21972244965416 5.32388793106946 15.2828463442421
v -5.21972244965416 4.72388793106946 15.3721737307859
v -8.14706220771224 4.72388793106946 15.2188489882915
v -8.14706220771224 6.75354810009936 14.9166752575055
v -4.54706220771224 6.75354810009936 14.9166752575055
v -5.21972244965416 5.32388793106946 15.1295216017476
v -5.21972244965416 4.72388793106946 15.2188489882915
vn -1 0 0
vn -1 0 0
vn -1 0 0
vn -1 0 0
vn -1 0 0
vn -1 0 0
vn 0 1 0
vn 0 1 0
vn 0 1 0
vn 0 1 0
vn 0 1 0
vn 0 1 0
vn 0.90484820824678 -0.425734330342988 0
vn 0.90484820824678 -0.425734330342988 0
vn 0.90484820824678 -0.425734330342988 0
vn 0.90484820824678 -0.425734330342988 0
vn 0.90484820824678 -0.425734330342988 0
vn 0.90484820824678 -0.425734330342988 0
vn 1 0 0
vn 1 0 0
vn 1 0 0
vn 1 0 0
vn 1 0 0
vn 1 0 0
vn -1.35045185859088e-15 -1 -2.71513602085995e-31
vn -1.35045185859088e-15 -1 -2.71513602085995e-31
vn -1.35045185859088e-15 -1 -2.71513602085995e-31
vn -1.35045185859088e-15 -1 -2.71513602085995e-31
vn -1.35045185859088e-15 -1 -2.71513602085995e-31
vn -1.35045185859088e-15 -1 -2.71513602085995e-31
vn 0 0.147255961294318 0.989098418694159
vn 0 0.147255961294318 0.989098418694159
vn 0 0.147255961294318 0.989098418694159
vn 0 0.147255961294318 0.989098418694159
vn 0 0.147255961294318 0.989098418694159
vn 0 -0.147255961294318 -0.989098418694159
vn 0 -0.147255961294318 -0.989098418694159
vn 0 -0.147255961294318 -0.989098418694159
vn 0 -0.147255961294318 -0.989098418694159
vn 0 -0.147255961294318 -0.989098418694159
usemtl surface-style-9358--<unnamed>
f 4//4 3//3 5//5
f 2//2 1//1 6//6
f 3//3 2//2 6//6
f 5//5 3//3 6//6
f 9//9 8//8 11//11
f 10//10 9//9 11//11
f 8//8 7//7 12//12
f 11//11 8//8 12//12
f 14//14 13//13 16//16
f 15//15 14//14 16//16
f 16//16 13//13 17//17
f 17//17 13//13 18//18
f 20//20 19//19 22//22
f 21//21 20//20 22//22
f 22//22 19//19 23//23
f 23//23 19//19 24//24
f 27//27 26//26 29//29
f 28//28 27//27 29//29
f 26//26 25//25 30//30
f 29//29 26//26 30//30
f 32//32 31//31 34//34
f 31//31 35//35 34//34
f 32//32 34//34 33//33
f 39//39 36//36 37//37
f 39//39 40//40 36//36
f 38//38 39//39 37//37
