# File generated by IfcOpenShell 0.5.0-rc1
mtllib Basement+64+IfcSpace+3ir8DRt_94Ov1huF8J6aKV.mtl
g product-ecd4835b-dfe2-4463-906b-e0f2131a451f-body
s 1
v 9.68533133037143 6.37245003430775 15.07
v 9.68533133037143 6.37245003430775 17.27
v 4.78533133037143 6.37245003430775 15.07
v 4.78533133037143 6.37245003430775 17.27
v 4.78533133037143 6.37245003430775 15.07
v 4.78533133037143 6.37245003430775 17.27
v 4.78533133037143 3.77245003430775 15.07
v 4.78533133037143 3.77245003430775 17.27
v 4.78533133037143 3.77245003430775 15.07
v 4.78533133037143 3.77245003430775 17.27
v 9.68533133037143 3.77245003430775 15.07
v 9.68533133037143 3.77245003430775 17.27
v 9.68533133037143 3.77245003430775 15.07
v 9.68533133037143 3.77245003430775 17.27
v 9.68533133037143 6.37245003430775 15.07
v 9.68533133037143 6.37245003430775 17.27
v 9.68533133037143 6.37245003430775 15.07
v 4.78533133037143 6.37245003430775 15.07
v 4.78533133037143 3.77245003430775 15.07
v 9.68533133037143 3.77245003430775 15.07
v 9.68533133037143 6.37245003430775 17.27
v 4.78533133037143 6.37245003430775 17.27
v 4.78533133037143 3.77245003430775 17.27
v 9.68533133037143 3.77245003430775 17.27
vn 0 1 0
vn 0 1 0
vn 0 1 0
vn 0 1 0
vn -1 -0 -0
vn -1 -0 -0
vn -1 -0 -0
vn -1 -0 -0
vn 0 -1 0
vn 0 -1 0
vn 0 -1 0
vn 0 -1 0
vn 1 0 0
vn 1 0 0
vn 1 0 0
vn 1 0 0
vn -0 -0 -1
vn -0 -0 -1
vn -0 -0 -1
vn -0 -0 -1
vn 0 0 1
vn 0 0 1
vn 0 0 1
vn 0 0 1
usemtl IfcSpace
f 2//2 1//1 3//3
f 4//4 2//2 3//3
f 6//6 5//5 7//7
f 8//8 6//6 7//7
f 10//10 9//9 11//11
f 12//12 10//10 11//11
f 14//14 13//13 15//15
f 16//16 14//14 15//15
f 18//18 17//17 19//19
f 17//17 20//20 19//19
f 23//23 21//21 22//22
f 23//23 24//24 21//21
