# File generated by IfcOpenShell 0.5.0-rc1
mtllib Basement+37+IfcWallStandardCase+16MAzIovn3_vKfXAHBMA7E.mtl
g product-4658af52-cb9c-43fb-9529-84a44b58a1ce-body
s 1
v -2.7358228245831 -13.9466480353872 15.07
v -2.7358228245831 -13.9466480353872 17.72
v -2.7358228245831 -14.1766480353872 17.72
v -2.7358228245831 -14.1766480353872 15.07
v -2.7358228245831 -14.1766480353872 15.07
v -2.7358228245831 -14.1766480353872 17.72
v -1.92845738425601 -14.1766480353872 17.72
v -1.92845738425601 -14.1766480353872 15.07
v -1.92845738425601 -14.1766480353872 15.07
v -1.92845738425601 -14.1766480353872 17.72
v -2.15845738425601 -13.9466480353872 17.72
v -2.15845738425601 -13.9466480353872 15.07
v -2.15845738425601 -13.9466480353872 15.07
v -2.15845738425601 -13.9466480353872 17.72
v -2.5058228245831 -13.9466480353872 17.72
v -2.5058228245831 -13.9466480353872 15.07
v -2.5058228245831 -13.9466480353872 15.07
v -2.5058228245831 -13.9466480353872 17.72
v -2.7358228245831 -13.9466480353872 17.72
v -2.7358228245831 -13.9466480353872 15.07
v -2.7358228245831 -13.9466480353872 15.07
v -2.7358228245831 -14.1766480353872 15.07
v -1.92845738425601 -14.1766480353872 15.07
v -2.15845738425601 -13.9466480353872 15.07
v -2.5058228245831 -13.9466480353872 15.07
v -2.7358228245831 -13.9466480353872 17.72
v -2.7358228245831 -14.1766480353872 17.72
v -1.92845738425601 -14.1766480353872 17.72
v -2.15845738425601 -13.9466480353872 17.72
v -2.5058228245831 -13.9466480353872 17.72
vn -1 0 0
vn -1 0 0
vn -1 0 0
vn -1 0 0
vn 0 -1 0
vn 0 -1 0
vn 0 -1 0
vn 0 -1 0
vn 0.707106781186548 0.707106781186548 -0
vn 0.707106781186548 0.707106781186548 -0
vn 0.707106781186548 0.707106781186548 -0
vn 0.707106781186548 0.707106781186548 -0
vn -0 1 0
vn -0 1 0
vn -0 1 0
vn -0 1 0
vn -0 1 0
vn -0 1 0
vn -0 1 0
vn -0 1 0
vn 0 0 -1
vn 0 0 -1
vn 0 0 -1
vn 0 0 -1
vn 0 0 -1
vn 0 0 1
vn 0 0 1
vn 0 0 1
vn 0 0 1
vn 0 0 1
usemtl IfcWallStandardCase
f 2//2 1//1 4//4
f 3//3 2//2 4//4
f 6//6 5//5 8//8
f 7//7 6//6 8//8
f 10//10 9//9 12//12
f 11//11 10//10 12//12
f 15//15 14//14 13//13
f 15//15 13//13 16//16
f 18//18 17//17 20//20
f 19//19 18//18 20//20
f 24//24 23//23 22//22
f 25//25 24//24 22//22
f 21//21 25//25 22//22
f 27//27 28//28 29//29
f 27//27 29//29 30//30
f 27//27 30//30 26//26
