# File generated by IfcOpenShell 0.5.0-rc1
mtllib Basement+5+IfcWallStandardCase+16MAzIovn3_vKfXAHBM8sw.mtl
g product-4658af52-cb9c-43fb-9529-84a44b588dba-body
s 1
v 9.77533133037145 22.963937078591 15.07
v -6.49966866962855 22.963937078591 15.07
v -6.49966866962853 22.963937078591 17.72
v -2.21466866962853 22.963937078591 17.72
v -2.21466866962853 22.963937078591 17.22
v 9.77533133037147 22.963937078591 17.22
v 9.77533133037145 22.963937078591 15.07
v -6.49966866962855 22.963937078591 15.07
v -6.49966866962855 22.783937078591 15.07
v 9.77533133037145 22.783937078591 15.07
v -6.49966866962855 22.963937078591 15.07
v -6.49966866962853 22.963937078591 17.72
v -6.49966866962853 22.783937078591 17.72
v -6.49966866962855 22.783937078591 15.07
v -2.21466866962853 22.783937078591 17.72
v -2.21466866962853 22.963937078591 17.72
v -6.49966866962853 22.783937078591 17.72
v -6.49966866962853 22.963937078591 17.72
v -2.21466866962853 22.963937078591 17.22
v -2.21466866962853 22.783937078591 17.22
v -2.21466866962853 22.783937078591 17.72
v -2.21466866962853 22.963937078591 17.72
v -2.21466866962853 22.783937078591 17.22
v 9.77533133037147 22.783937078591 17.22
v 9.77533133037147 22.963937078591 17.22
v -2.21466866962853 22.963937078591 17.22
v 9.77533133037145 22.783937078591 15.07
v 9.77533133037145 22.963937078591 15.07
v 9.77533133037147 22.963937078591 17.22
v 9.77533133037147 22.783937078591 17.22
v -6.49966866962855 22.783937078591 15.07
v 9.77533133037145 22.783937078591 15.07
v 9.77533133037147 22.783937078591 17.22
v -2.21466866962853 22.783937078591 17.22
v -2.21466866962853 22.783937078591 17.72
v -6.49966866962853 22.783937078591 17.72
vn 0 1 0
vn 0 1 0
vn 0 1 0
vn 0 1 0
vn 0 1 0
vn 0 1 0
vn -0 -0 -1
vn -0 -0 -1
vn -0 -0 -1
vn -0 -0 -1
vn -1 -0 -0
vn -1 -0 -0
vn -1 -0 -0
vn -1 -0 -0
vn 0 0 1
vn 0 0 1
vn 0 0 1
vn 0 0 1
vn 1 0 0
vn 1 0 0
vn 1 0 0
vn 1 0 0
vn 0 0 1
vn 0 0 1
vn 0 0 1
vn 0 0 1
vn 1 0 0
vn 1 0 0
vn 1 0 0
vn 1 0 0
vn 0 -1 0
vn 0 -1 0
vn 0 -1 0
vn 0 -1 0
vn 0 -1 0
vn 0 -1 0
usemtl surface-style-1694-ifcwallstandardcase
f 6//6 1//1 5//5
f 4//4 5//5 3//3
f 3//3 5//5 2//2
f 5//5 1//1 2//2
f 9//9 8//8 7//7
f 10//10 9//9 7//7
f 12//12 11//11 14//14
f 13//13 12//12 14//14
f 16//16 17//17 15//15
f 16//16 18//18 17//17
f 20//20 22//22 21//21
f 20//20 19//19 22//22
f 24//24 25//25 23//23
f 23//23 25//25 26//26
f 29//29 30//30 28//28
f 30//30 27//27 28//28
f 35//35 36//36 34//34
f 36//36 31//31 34//34
f 33//33 34//34 32//32
f 34//34 31//31 32//32
