# File generated by IfcOpenShell 0.5.0-rc1
mtllib Basement+47+IfcSlab+2VaEM7nSf74PRgrsWTUyaP.mtl
g product-9f90e587-c5ca-4711-96ea-d7681d7bc919-body
s 1
v 11.8033690807852 -25.1811739871052 15.07
v 11.8033690807852 -25.1811739871052 14.92
v -8.45048224540483 -25.1811739871052 15.07
v -8.45048224540483 -25.1811739871052 14.92
v -8.45048224540483 -25.1811739871052 15.07
v -8.45048224540483 -25.1811739871052 14.92
v -8.97998448996763 24.5759442565594 15.07
v -8.97998448996763 24.5759442565594 14.92
v -8.97998448996763 24.5759442565594 15.07
v -8.97998448996763 24.5759442565594 14.92
v 11.2600882048143 24.5759442565594 15.07
v 11.2600882048143 24.5759442565594 14.92
v 11.2600882048143 24.5759442565594 15.07
v 11.2600882048143 24.5759442565594 14.92
v 11.8033690807852 -25.1811739871052 15.07
v 11.8033690807852 -25.1811739871052 14.92
v 11.8033690807852 -25.1811739871052 15.07
v -8.45048224540483 -25.1811739871052 15.07
v -8.97998448996763 24.5759442565594 15.07
v 11.2600882048143 24.5759442565594 15.07
v 11.8033690807852 -25.1811739871052 14.92
v -8.45048224540483 -25.1811739871052 14.92
v -8.97998448996763 24.5759442565594 14.92
v 11.2600882048143 24.5759442565594 14.92
vn 0 -1 0
vn 0 -1 0
vn 0 -1 0
vn 0 -1 0
vn -0.999943381508901 -0.0106411360551833 0
vn -0.999943381508901 -0.0106411360551833 0
vn -0.999943381508901 -0.0106411360551833 0
vn -0.999943381508901 -0.0106411360551833 0
vn 0 1 0
vn 0 1 0
vn 0 1 0
vn 0 1 0
vn 0.999940396800793 0.0109180055812768 0
vn 0.999940396800793 0.0109180055812768 0
vn 0.999940396800793 0.0109180055812768 0
vn 0.999940396800793 0.0109180055812768 0
vn 0 0 1
vn 0 0 1
vn 0 0 1
vn 0 0 1
vn 0 0 -1
vn 0 0 -1
vn 0 0 -1
vn 0 0 -1
usemtl surface-style-9358--<unnamed>
f 2//2 1//1 4//4
f 4//4 1//1 3//3
f 6//6 5//5 7//7
f 8//8 6//6 7//7
f 10//10 9//9 11//11
f 12//12 10//10 11//11
f 14//14 13//13 15//15
f 16//16 14//14 15//15
f 18//18 17//17 20//20
f 18//18 20//20 19//19
f 24//24 21//21 22//22
f 23//23 24//24 22//22
