# File generated by IfcOpenShell 0.5.0-rc1
mtllib Basement+34+IfcWallStandardCase+16MAzIovn3_vKfXAHBMAPh.mtl
g product-4658af52-cb9c-43fb-9529-84a44b58a66b-body
s 1
v -0.188736604869423 -14.7281913247127 15.07
v -0.188736604869423 -14.7281913247127 17.72
v 0.136532514476389 -14.7281913247127 17.72
v 0.136532514476389 -14.7281913247127 15.07
v 0.136532514476389 -14.7281913247127 15.07
v 0.136532514476389 -14.7281913247127 17.72
v 0.688075803801896 -14.1766480353872 17.72
v 0.688075803801896 -14.1766480353872 15.07
v 0.688075803801896 -14.1766480353872 15.07
v 0.688075803801896 -14.1766480353872 17.72
v 0.362806684456084 -14.1766480353872 17.72
v 0.362806684456084 -14.1766480353872 15.07
v 0.362806684456084 -14.1766480353872 15.07
v 0.362806684456084 -14.1766480353872 17.72
v 0.0412633951305762 -14.4981913247127 17.72
v 0.0412633951305762 -14.4981913247127 15.07
v 0.0412633951305762 -14.4981913247127 15.07
v 0.0412633951305762 -14.4981913247127 17.72
v -0.188736604869423 -14.7281913247127 17.72
v -0.188736604869423 -14.7281913247127 15.07
v -0.188736604869423 -14.7281913247127 15.07
v 0.136532514476389 -14.7281913247127 15.07
v 0.688075803801896 -14.1766480353872 15.07
v 0.362806684456084 -14.1766480353872 15.07
v 0.0412633951305762 -14.4981913247127 15.07
v -0.188736604869423 -14.7281913247127 17.72
v 0.136532514476389 -14.7281913247127 17.72
v 0.688075803801896 -14.1766480353872 17.72
v 0.362806684456084 -14.1766480353872 17.72
v 0.0412633951305762 -14.4981913247127 17.72
vn -7.21644966006352e-16 -1 0
vn -7.21644966006352e-16 -1 0
vn -7.21644966006352e-16 -1 0
vn -7.21644966006352e-16 -1 0
vn 0.707106781186547 -0.707106781186548 0
vn 0.707106781186547 -0.707106781186548 0
vn 0.707106781186547 -0.707106781186548 0
vn 0.707106781186547 -0.707106781186548 0
vn 6.66133814775094e-16 1 -0
vn 6.66133814775094e-16 1 -0
vn 6.66133814775094e-16 1 -0
vn 6.66133814775094e-16 1 -0
vn -0.707106781186547 0.707106781186548 0
vn -0.707106781186547 0.707106781186548 0
vn -0.707106781186547 0.707106781186548 0
vn -0.707106781186547 0.707106781186548 0
vn -0.707106781186547 0.707106781186548 0
vn -0.707106781186547 0.707106781186548 0
vn -0.707106781186547 0.707106781186548 0
vn -0.707106781186547 0.707106781186548 0
vn 0 0 -1
vn 0 0 -1
vn 0 0 -1
vn 0 0 -1
vn 0 0 -1
vn 0 0 1
vn 0 0 1
vn 0 0 1
vn 0 0 1
vn 0 0 1
usemtl IfcWallStandardCase
f 2//2 1//1 4//4
f 3//3 2//2 4//4
f 6//6 5//5 8//8
f 7//7 6//6 8//8
f 10//10 9//9 12//12
f 11//11 10//10 12//12
f 15//15 14//14 13//13
f 15//15 13//13 16//16
f 18//18 17//17 20//20
f 19//19 18//18 20//20
f 24//24 23//23 22//22
f 25//25 24//24 22//22
f 21//21 25//25 22//22
f 27//27 28//28 29//29
f 27//27 29//29 30//30
f 27//27 30//30 26//26
