# File generated by IfcOpenShell 0.5.0-rc1
mtllib Basement+16+IfcWallStandardCase+16MAzIovn3_vKfXAHBM9TG.mtl
g product-4658af52-cb9c-43fb-9529-84a44b589750-body
s 1
v -5.17682196120086 2.84385826019025 15.07
v -5.17682196120086 2.84385826019025 17.72
v -4.99682196120086 2.84385826019025 17.72
v -4.99682196120086 2.84385826019025 15.07
v -4.99682196120086 2.84385826019025 15.07
v -4.99682196120086 2.84385826019025 17.72
v -4.99682196120086 3.01385826019025 17.72
v -4.99682196120086 3.01385826019025 15.07
v -4.99682196120086 3.01385826019025 15.07
v -4.99682196120086 3.01385826019025 17.72
v -4.99682196120086 5.19385826019025 17.72
v -4.99682196120086 5.19385826019025 15.07
v -4.99682196120086 5.19385826019025 15.07
v -4.99682196120086 5.19385826019025 17.72
v -4.99682196120086 5.26374322448033 17.72
v -4.99682196120086 5.26374322448033 15.07
v -4.99682196120086 5.26374322448033 15.07
v -4.99682196120086 5.26374322448033 17.72
v -5.17682196120086 4.88117441131179 17.72
v -5.17682196120086 4.88117441131179 15.07
v -5.17682196120086 4.88117441131179 15.07
v -5.17682196120086 4.88117441131179 17.72
v -5.17682196120086 2.84385826019025 17.72
v -5.17682196120086 2.84385826019025 15.07
v -5.17682196120086 2.84385826019025 15.07
v -4.99682196120086 2.84385826019025 15.07
v -4.99682196120086 3.01385826019025 15.07
v -4.99682196120086 5.19385826019025 15.07
v -4.99682196120086 5.26374322448033 15.07
v -5.17682196120086 4.88117441131179 15.07
v -5.17682196120086 2.84385826019025 17.72
v -4.99682196120086 2.84385826019025 17.72
v -4.99682196120086 3.01385826019025 17.72
v -4.99682196120086 5.19385826019025 17.72
v -4.99682196120086 5.26374322448033 17.72
v -5.17682196120086 4.88117441131179 17.72
vn 0 -1 0
vn 0 -1 0
vn 0 -1 0
vn 0 -1 0
vn 1 0 0
vn 1 0 0
vn 1 0 0
vn 1 0 0
vn 1 0 0
vn 1 0 0
vn 1 0 0
vn 1 0 0
vn 1 0 0
vn 1 0 0
vn 1 0 0
vn 1 0 0
vn -0.90484820824678 0.425734330342988 -0
vn -0.90484820824678 0.425734330342988 -0
vn -0.90484820824678 0.425734330342988 -0
vn -0.90484820824678 0.425734330342988 -0
vn -1 -0 0
vn -1 -0 0
vn -1 -0 0
vn -1 -0 0
vn -0 0 -1
vn -0 0 -1
vn -0 0 -1
vn -0 0 -1
vn -0 0 -1
vn -0 0 -1
vn 0 0 1
vn 0 0 1
vn 0 0 1
vn 0 0 1
vn 0 0 1
vn 0 0 1
usemtl surface-style-1694-ifcwallstandardcase
f 2//2 1//1 4//4
f 3//3 2//2 4//4
f 7//7 6//6 5//5
f 7//7 5//5 8//8
f 10//10 9//9 12//12
f 11//11 10//10 12//12
f 14//14 13//13 16//16
f 15//15 14//14 16//16
f 18//18 17//17 20//20
f 19//19 18//18 20//20
f 22//22 21//21 24//24
f 23//23 22//22 24//24
f 29//29 28//28 30//30
f 25//25 30//30 27//27
f 25//25 27//27 26//26
f 30//30 28//28 27//27
f 36//36 34//34 35//35
f 33//33 36//36 31//31
f 32//32 33//33 31//31
f 33//33 34//34 36//36
