# File generated by IfcOpenShell 0.5.0-rc1
mtllib Basement+2+IfcWallStandardCase+16MAzIovn3_vKfXAHBM8BB.mtl
g product-4658af52-cb9c-43fb-9529-84a44b5882cb-body
s 1
v -8.14706220771226 11.1919593920222 15.07
v -8.14706220771226 11.1919593920222 17.72
v -8.32706220771226 11.0213696152666 17.72
v -8.32706220771226 11.0213696152666 15.07
v -8.32706220771226 11.0213696152666 15.07
v -8.32706220771226 11.0213696152666 17.72
v -8.32706220771226 -5.92000876515275 17.72
v -8.32706220771226 -5.92000876515275 15.07
v -8.32706220771226 -5.92000876515275 15.07
v -8.32706220771226 -5.92000876515275 17.72
v -8.14706220771226 -5.92000876515275 17.72
v -8.14706220771226 -5.92000876515275 15.07
v -8.14706220771226 -5.92000876515275 15.07
v -8.14706220771226 -5.92000876515275 17.72
v -8.14706220771226 10.9439656986879 17.72
v -8.14706220771226 10.9439656986879 15.07
v -8.14706220771226 10.9439656986879 15.07
v -8.14706220771226 10.9439656986879 17.72
v -8.14706220771226 11.1919593920222 17.72
v -8.14706220771226 11.1919593920222 15.07
v -8.14706220771226 11.1919593920222 15.07
v -8.32706220771226 11.0213696152666 15.07
v -8.32706220771226 -5.92000876515275 15.07
v -8.14706220771226 -5.92000876515275 15.07
v -8.14706220771226 10.9439656986879 15.07
v -8.14706220771226 11.1919593920222 17.72
v -8.32706220771226 11.0213696152666 17.72
v -8.32706220771226 -5.92000876515275 17.72
v -8.14706220771226 -5.92000876515275 17.72
v -8.14706220771226 10.9439656986879 17.72
vn -0.68787949589419 0.725824909415732 0
vn -0.68787949589419 0.725824909415732 0
vn -0.68787949589419 0.725824909415732 0
vn -0.68787949589419 0.725824909415732 0
vn -1 0 0
vn -1 0 0
vn -1 0 0
vn -1 0 0
vn 0 -1 -0
vn 0 -1 -0
vn 0 -1 -0
vn 0 -1 -0
vn 1 0 0
vn 1 0 0
vn 1 0 0
vn 1 0 0
vn 1 0 0
vn 1 0 0
vn 1 0 0
vn 1 0 0
vn 0 -0 -1
vn 0 -0 -1
vn 0 -0 -1
vn 0 -0 -1
vn 0 -0 -1
vn 0 0 1
vn 0 0 1
vn 0 0 1
vn 0 0 1
vn 0 0 1
usemtl surface-style-1694-ifcwallstandardcase
f 2//2 1//1 4//4
f 3//3 2//2 4//4
f 6//6 5//5 7//7
f 7//7 5//5 8//8
f 10//10 9//9 12//12
f 11//11 10//10 12//12
f 14//14 13//13 15//15
f 15//15 13//13 16//16
f 18//18 17//17 20//20
f 19//19 18//18 20//20
f 24//24 23//23 25//25
f 21//21 25//25 22//22
f 25//25 23//23 22//22
f 30//30 28//28 29//29
f 27//27 30//30 26//26
f 27//27 28//28 30//30
