# File generated by IfcOpenShell 0.5.0-rc1
mtllib Basement+1+IfcWallStandardCase+25cTfcqeD8_BnIF0L$nXh0.mtl
g product-8599da66-d283-48f8-bc52-3c057fc61ac0-body
s 1
v -8.45165283664807 -25.0711739871051 15.07
v -8.45165283664807 -25.0711739871051 17.72
v -8.34164660826141 -25.0711739871051 17.72
v -8.34164660826141 -25.0711739871051 15.07
v -8.34164660826141 -25.0711739871051 15.07
v -8.34164660826141 -25.0711739871051 17.72
v -8.86880767033768 24.4659442565595 17.72
v -8.86880767033768 24.4659442565595 15.07
v -8.86880767033768 24.4659442565595 15.07
v -8.86880767033768 24.4659442565595 17.72
v -8.86997826158086 24.5759442565595 17.72
v -8.86997826158086 24.5759442565595 15.07
v -8.86997826158086 24.5759442565595 15.07
v -8.86997826158086 24.5759442565595 17.72
v -8.97998448996752 24.5759442565595 17.72
v -8.97998448996752 24.5759442565595 15.07
v -8.97998448996752 24.5759442565595 15.07
v -8.97998448996752 24.5759442565595 17.72
v -8.45165283664807 -25.0711739871051 17.72
v -8.45165283664807 -25.0711739871051 15.07
v -8.45165283664807 -25.0711739871051 15.07
v -8.34164660826141 -25.0711739871051 15.07
v -8.86880767033768 24.4659442565595 15.07
v -8.86997826158086 24.5759442565595 15.07
v -8.97998448996752 24.5759442565595 15.07
v -8.45165283664807 -25.0711739871051 17.72
v -8.34164660826141 -25.0711739871051 17.72
v -8.86880767033768 24.4659442565595 17.72
v -8.86997826158086 24.5759442565595 17.72
v -8.97998448996752 24.5759442565595 17.72
vn -1.38998187959594e-13 -1 0
vn -1.38998187959594e-13 -1 0
vn -1.38998187959594e-13 -1 0
vn -1.38998187959594e-13 -1 0
vn 0.999943381508901 0.0106411360551799 0
vn 0.999943381508901 0.0106411360551799 0
vn 0.999943381508901 0.0106411360551799 0
vn 0.999943381508901 0.0106411360551799 0
vn 0.999943381508901 0.0106411360551799 0
vn 0.999943381508901 0.0106411360551799 0
vn 0.999943381508901 0.0106411360551799 0
vn 0.999943381508901 0.0106411360551799 0
vn 5.78877223933461e-14 1 0
vn 5.78877223933461e-14 1 0
vn 5.78877223933461e-14 1 0
vn 5.78877223933461e-14 1 0
vn -0.999943381508901 -0.0106411360551799 0
vn -0.999943381508901 -0.0106411360551799 0
vn -0.999943381508901 -0.0106411360551799 0
vn -0.999943381508901 -0.0106411360551799 0
vn -0 0 -1
vn -0 0 -1
vn -0 0 -1
vn -0 0 -1
vn -0 0 -1
vn 0 0 1
vn 0 0 1
vn 0 0 1
vn 0 0 1
vn 0 0 1
usemtl surface-style-1694-ifcwallstandardcase
f 2//2 1//1 4//4
f 3//3 2//2 4//4
f 6//6 5//5 8//8
f 7//7 6//6 8//8
f 10//10 9//9 12//12
f 11//11 10//10 12//12
f 14//14 13//13 16//16
f 15//15 14//14 16//16
f 18//18 17//17 20//20
f 19//19 18//18 20//20
f 25//25 24//24 23//23
f 25//25 23//23 21//21
f 21//21 23//23 22//22
f 28//28 29//29 30//30
f 26//26 28//28 30//30
f 27//27 28//28 26//26
