# File generated by IfcOpenShell 0.5.0-rc1
mtllib Basement+55+IfcWallStandardCase+3arqomPnf8oOz4t06vxN8N.mtl
g product-e4d74cb0-671a-48c9-8f44-dc01b9ed7217-body
s 1
v 11.6921614718417 -25.0711739871052 15.07
v 11.6921614718417 -25.0711739871052 17.87
v 11.8021680285844 -25.0711739871053 15.07
v 11.8021680285844 -25.0711739871053 17.87
v 11.8021680285844 -25.0711739871053 15.07
v 11.8021680285844 -25.0711739871053 17.87
v 11.2612892570149 24.4659442565593 15.07
v 11.2612892570149 24.4659442565593 17.87
v 11.2612892570149 24.4659442565593 15.07
v 11.2612892570149 24.4659442565593 17.87
v 11.1512827002722 24.4659442565593 15.07
v 11.1512827002722 24.4659442565593 17.87
v 11.1512827002722 24.4659442565593 15.07
v 11.1512827002722 24.4659442565593 17.87
v 11.6921614718417 -25.0711739871052 15.07
v 11.6921614718417 -25.0711739871052 17.87
v 11.6921614718417 -25.0711739871052 15.07
v 11.8021680285844 -25.0711739871053 15.07
v 11.2612892570149 24.4659442565593 15.07
v 11.1512827002722 24.4659442565593 15.07
v 11.6921614718417 -25.0711739871052 17.87
v 11.8021680285844 -25.0711739871053 17.87
v 11.2612892570149 24.4659442565593 17.87
v 11.1512827002722 24.4659442565593 17.87
vn -9.6531463378291e-13 -1 0
vn -9.6531463378291e-13 -1 0
vn -9.6531463378291e-13 -1 0
vn -9.6531463378291e-13 -1 0
vn 0.999940396800793 0.0109180055812695 0
vn 0.999940396800793 0.0109180055812695 0
vn 0.999940396800793 0.0109180055812695 0
vn 0.999940396800793 0.0109180055812695 0
vn 5.82763004519648e-14 1 0
vn 5.82763004519648e-14 1 0
vn 5.82763004519648e-14 1 0
vn 5.82763004519648e-14 1 0
vn -0.999940396800793 -0.0109180055812695 0
vn -0.999940396800793 -0.0109180055812695 0
vn -0.999940396800793 -0.0109180055812695 0
vn -0.999940396800793 -0.0109180055812695 0
vn -0 0 -1
vn -0 0 -1
vn -0 0 -1
vn -0 0 -1
vn 0 0 1
vn 0 0 1
vn 0 0 1
vn 0 0 1
usemtl surface-style-1694-ifcwallstandardcase
f 2//2 1//1 3//3
f 4//4 2//2 3//3
f 6//6 5//5 7//7
f 8//8 6//6 7//7
f 10//10 9//9 11//11
f 12//12 10//10 11//11
f 14//14 13//13 15//15
f 16//16 14//14 15//15
f 20//20 19//19 17//17
f 17//17 19//19 18//18
f 21//21 23//23 24//24
f 22//22 23//23 21//21
