# File generated by IfcOpenShell 0.5.0-rc1
mtllib Basement+48+IfcWallStandardCase+2iCUV8TdD4qxo43ZpWSND4.mtl
g product-ac31e7c8-7673-44d3-bc84-0e3ce0717344-body
s 1
v -1.60182196120086 5.37385826019025 15.07
v -1.60182196120086 5.37385826019025 17.72
v -3.48412196120086 5.37385826019025 17.72
v -3.48412196120086 5.37385826019025 15.07
v -3.48412196120086 5.37385826019025 15.07
v -3.48412196120086 5.37385826019025 17.72
v -3.48412196120086 5.19385826019025 17.72
v -3.48412196120086 5.19385826019025 15.07
v -3.48412196120086 5.19385826019025 15.07
v -3.48412196120086 5.19385826019025 17.72
v -1.60182196120086 5.19385826019025 17.72
v -1.60182196120086 5.19385826019025 15.07
v -1.60182196120086 5.19385826019025 15.07
v -1.60182196120086 5.19385826019025 17.72
v -1.60182196120086 5.37385826019025 17.72
v -1.60182196120086 5.37385826019025 15.07
v -1.60182196120086 5.37385826019025 15.07
v -3.48412196120086 5.37385826019025 15.07
v -3.48412196120086 5.19385826019025 15.07
v -1.60182196120086 5.19385826019025 15.07
v -1.60182196120086 5.37385826019025 17.72
v -3.48412196120086 5.37385826019025 17.72
v -3.48412196120086 5.19385826019025 17.72
v -1.60182196120086 5.19385826019025 17.72
vn 0 1 0
vn 0 1 0
vn 0 1 0
vn 0 1 0
vn -1 -0 -0
vn -1 -0 -0
vn -1 -0 -0
vn -1 -0 -0
vn 0 -1 0
vn 0 -1 0
vn 0 -1 0
vn 0 -1 0
vn 1 0 0
vn 1 0 0
vn 1 0 0
vn 1 0 0
vn -0 -0 -1
vn -0 -0 -1
vn -0 -0 -1
vn -0 -0 -1
vn 0 0 1
vn 0 0 1
vn 0 0 1
vn 0 0 1
usemtl surface-style-1694-ifcwallstandardcase
f 2//2 1//1 4//4
f 3//3 2//2 4//4
f 6//6 5//5 8//8
f 7//7 6//6 8//8
f 10//10 9//9 12//12
f 11//11 10//10 12//12
f 14//14 13//13 16//16
f 15//15 14//14 16//16
f 19//19 18//18 17//17
f 20//20 19//19 17//17
f 21//21 22//22 23//23
f 21//21 23//23 24//24
