# File generated by IfcOpenShell 0.5.0-rc1
mtllib Basement+15+IfcWallStandardCase+16MAzIovn3_vKfXAHBM9VO.mtl
g product-4658af52-cb9c-43fb-9529-84a44b5897d8-body
s 1
v -5.17682196120086 5.30397329590017 15.07
v -5.17682196120086 5.30397329590018 17.72
v -5.17682196120086 4.88117441131179 17.72
v -5.17682196120086 4.88117441131179 15.07
v -5.17682196120086 4.88117441131179 15.07
v -5.17682196120086 4.88117441131179 17.72
v -4.99682196120086 5.26374322448033 17.72
v -4.99682196120086 5.26374322448033 15.07
v -4.99682196120086 5.26374322448033 15.07
v -4.99682196120086 5.26374322448033 17.72
v -4.9450124415915 5.37385826019025 17.72
v -4.9450124415915 5.37385826019025 15.07
v -4.9450124415915 5.37385826019025 15.07
v -4.9450124415915 5.37385826019025 17.72
v -4.20035119013153 6.95654810009936 17.72
v -4.20035119013153 6.95654810009936 15.07
v -4.20035119013153 6.95654810009936 15.07
v -4.20035119013153 6.95654810009936 17.72
v -4.39927958315865 6.95654810009936 17.72
v -4.39927958315865 6.95654810009936 15.07
v -4.39927958315865 6.95654810009936 15.07
v -4.39927958315865 6.95654810009936 17.72
v -5.17682196120086 5.30397329590018 17.72
v -5.17682196120086 5.30397329590017 15.07
v -5.17682196120086 5.30397329590017 15.07
v -5.17682196120086 4.88117441131179 15.07
v -4.99682196120086 5.26374322448033 15.07
v -4.9450124415915 5.37385826019025 15.07
v -4.20035119013153 6.95654810009936 15.07
v -4.39927958315865 6.95654810009936 15.07
v -5.17682196120086 5.30397329590018 17.72
v -5.17682196120086 4.88117441131179 17.72
v -4.99682196120086 5.26374322448033 17.72
v -4.9450124415915 5.37385826019025 17.72
v -4.20035119013153 6.95654810009936 17.72
v -4.39927958315865 6.95654810009936 17.72
vn -1 6.66133814775094e-16 0
vn -1 6.66133814775094e-16 0
vn -1 6.66133814775094e-16 0
vn -1 6.66133814775094e-16 0
vn 0.904848208246779 -0.425734330342989 0
vn 0.904848208246779 -0.425734330342989 0
vn 0.904848208246779 -0.425734330342989 0
vn 0.904848208246779 -0.425734330342989 0
vn 0.904848208246779 -0.425734330342989 0
vn 0.904848208246779 -0.425734330342989 0
vn 0.904848208246779 -0.425734330342989 0
vn 0.904848208246779 -0.425734330342989 0
vn 0.904848208246779 -0.425734330342989 0
vn 0.904848208246779 -0.425734330342989 0
vn 0.904848208246779 -0.425734330342989 0
vn 0.904848208246779 -0.425734330342989 0
vn 3.33066907387547e-16 1 -0
vn 3.33066907387547e-16 1 -0
vn 3.33066907387547e-16 1 -0
vn 3.33066907387547e-16 1 -0
vn -0.904848208246779 0.425734330342989 0
vn -0.904848208246779 0.425734330342989 0
vn -0.904848208246779 0.425734330342989 0
vn -0.904848208246779 0.425734330342989 0
vn 0 0 -1
vn 0 0 -1
vn 0 0 -1
vn 0 0 -1
vn 0 0 -1
vn 0 0 -1
vn 0 0 1
vn 0 0 1
vn 0 0 1
vn 0 0 1
vn 0 0 1
vn 0 0 1
usemtl surface-style-1694-ifcwallstandardcase
f 3//3 2//2 1//1
f 3//3 1//1 4//4
f 7//7 6//6 5//5
f 7//7 5//5 8//8
f 10//10 9//9 12//12
f 11//11 10//10 12//12
f 14//14 13//13 16//16
f 15//15 14//14 16//16
f 18//18 17//17 20//20
f 19//19 18//18 20//20
f 23//23 22//22 21//21
f 23//23 21//21 24//24
f 30//30 29//29 28//28
f 25//25 30//30 28//28
f 25//25 28//28 27//27
f 25//25 27//27 26//26
f 34//34 35//35 36//36
f 34//34 36//36 31//31
f 33//33 34//34 31//31
f 32//32 33//33 31//31
