{
  "accessors": [
    {
      "name": "product-055e86f2-2d2c-4322-900b-dac16094d0c0-body_1_0_positions",
      "componentType": 5126,
      "count": 378,
      "min": [
        -8.868807792663574,
        -25.07117462158203,
        15.069999694824219
      ],
      "max": [
        11.692161560058594,
        24.465944290161133,
        17.270000457763672
      ],
      "type": "VEC3",
      "bufferView": 0,
      "byteOffset": 0
    },
    {
      "name": "product-055e86f2-2d2c-4322-900b-dac16094d0c0-body_1_0_normals",
      "componentType": 5126,
      "count": 378,
      "min": [
        -1,
        -1,
        -1
      ],
      "max": [
        1,
        1,
        1
      ],
      "type": "VEC3",
      "bufferView": 1,
      "byteOffset": 0
    },
    {
      "name": "product-055e86f2-2d2c-4322-900b-dac16094d0c0-body_1_0_indices",
      "componentType": 5123,
      "count": 816,
      "min": [
        0
      ],
      "max": [
        377
      ],
      "type": "SCALAR",
      "bufferView": 2,
      "byteOffset": 0
    }
  ],
  "asset": {
    "generator": "obj2gltf",
    "version": "2.0"
  },
  "buffers": [
    {
      "name": "Basement+72+IfcSpace+05NeRoBIn38f0Bsi5WbD30",
      "byteLength": 10704,
      "uri": "data:application/octet-stream;base64,"
    }
  ],
  "bufferViews": [
    {
      "name": "bufferView_0",
      "buffer": 0,
      "byteLength": 4536,
      "byteOffset": 0,
      "byteStride": 12,
      "target": 34962
    },
    {
      "name": "bufferView_1",
      "buffer": 0,
      "byteLength": 4536,
      "byteOffset": 4536,
      "byteStride": 12,
      "target": 34962
    },
    {
      "name": "bufferView_2",
      "buffer": 0,
      "byteLength": 1632,
      "byteOffset": 9072,
      "target": 34963
    }
  ],
  "materials": [
    {
      "name": "IfcSpace",
      "pbrMetallicRoughness": {
        "baseColorFactor": [
          0.7,
          0.7,
          0.7,
          1
        ],
        "metallicFactor": 0,
        "roughnessFactor": 1
      },
      "emissiveFactor": [
        0,
        0,
        0
      ],
      "alphaMode": "OPAQUE",
      "doubleSided": false
    }
  ],
  "meshes": [
    {
      "name": "product-055e86f2-2d2c-4322-900b-dac16094d0c0-body_1",
      "primitives": [
        {
          "attributes": {
            "POSITION": 0,
            "NORMAL": 1
          },
          "indices": 2,
          "material": 0,
          "mode": 4
        }
      ]
    }
  ],
  "nodes": [
    {
      "name": "product-055e86f2-2d2c-4322-900b-dac16094d0c0-body",
      "mesh": 0
    }
  ],
  "scene": 0,
  "scenes": [
    {
      "nodes": [
        0
      ]
    }
  ]
}
