{
  "accessors": [
    {
      "name": "product-9e78f0b9-97bd-45e0-b482-7d7702e4c7cc-body_1_0_positions",
      "componentType": 5126,
      "count": 360,
      "min": [
        -3.349721908569336,
        3.018458366394043,
        20.670000076293945
      ],
      "max": [
        -1.639459252357483,
        4.008458137512207,
        22.113332748413086
      ],
      "type": "VEC3",
      "bufferView": 0,
      "byteOffset": 0
    },
    {
      "name": "product-9e78f0b9-97bd-45e0-b482-7d7702e4c7cc-body_1_0_normals",
      "componentType": 5126,
      "count": 360,
      "min": [
        -1,
        -1,
        -1
      ],
      "max": [
        1,
        1,
        1
      ],
      "type": "VEC3",
      "bufferView": 1,
      "byteOffset": 0
    },
    {
      "name": "product-9e78f0b9-97bd-45e0-b482-7d7702e4c7cc-body_1_0_indices",
      "componentType": 5123,
      "count": 540,
      "min": [
        0
      ],
      "max": [
        359
      ],
      "type": "SCALAR",
      "bufferView": 2,
      "byteOffset": 0
    },
    {
      "name": "product-a344894b-ffd7-4ad6-ab57-e459d276711d-body_1_0_positions",
      "componentType": 5126,
      "count": 312,
      "min": [
        -3.33722186088562,
        4.156015872955322,
        22.113332748413086
      ],
      "max": [
        -1.8247219324111938,
        5.1460161209106445,
        23.420000076293945
      ],
      "type": "VEC3",
      "bufferView": 0,
      "byteOffset": 4320
    },
    {
      "name": "product-a344894b-ffd7-4ad6-ab57-e459d276711d-body_1_0_normals",
      "componentType": 5126,
      "count": 312,
      "min": [
        -1,
        -1,
        -1
      ],
      "max": [
        1,
        1,
        1
      ],
      "type": "VEC3",
      "bufferView": 1,
      "byteOffset": 4320
    },
    {
      "name": "product-a344894b-ffd7-4ad6-ab57-e459d276711d-body_1_0_indices",
      "componentType": 5123,
      "count": 468,
      "min": [
        0
      ],
      "max": [
        311
      ],
      "type": "SCALAR",
      "bufferView": 2,
      "byteOffset": 1080
    },
    {
      "name": "product-c64ffe2b-9841-4b2e-a8a3-9f9865af9423-body_1_0_positions",
      "componentType": 5126,
      "count": 928,
      "min": [
        -3.3876218795776367,
        3.9580583572387695,
        20.856666564941406
      ],
      "max": [
        -1.639459252357483,
        4.206416130065918,
        24.56999969482422
      ],
      "type": "VEC3",
      "bufferView": 0,
      "byteOffset": 8064
    },
    {
      "name": "product-c64ffe2b-9841-4b2e-a8a3-9f9865af9423-body_1_0_normals",
      "componentType": 5126,
      "count": 928,
      "min": [
        -1,
        -1,
        -1
      ],
      "max": [
        1,
        1,
        1
      ],
      "type": "VEC3",
      "bufferView": 1,
      "byteOffset": 8064
    },
    {
      "name": "product-c64ffe2b-9841-4b2e-a8a3-9f9865af9423-body_1_0_indices",
      "componentType": 5123,
      "count": 1392,
      "min": [
        0
      ],
      "max": [
        927
      ],
      "type": "SCALAR",
      "bufferView": 2,
      "byteOffset": 2016
    },
    {
      "name": "product-21156226-500e-45de-8374-f41437e70912-body_1_0_positions",
      "componentType": 5126,
      "count": 1648,
      "min": [
        -4.336822032928467,
        3.0188581943511963,
        20.856666564941406
      ],
      "max": [
        -1.639459252357483,
        5.145616054534912,
        24.56999969482422
      ],
      "type": "VEC3",
      "bufferView": 0,
      "byteOffset": 19200
    },
    {
      "name": "product-21156226-500e-45de-8374-f41437e70912-body_1_0_normals",
      "componentType": 5126,
      "count": 1648,
      "min": [
        -1,
        -1,
        -1
      ],
      "max": [
        1,
        1,
        1
      ],
      "type": "VEC3",
      "bufferView": 1,
      "byteOffset": 19200
    },
    {
      "name": "product-21156226-500e-45de-8374-f41437e70912-body_1_0_indices",
      "componentType": 5123,
      "count": 2472,
      "min": [
        0
      ],
      "max": [
        1647
      ],
      "type": "SCALAR",
      "bufferView": 2,
      "byteOffset": 4800
    },
    {
      "name": "product-68d337df-c754-4d79-bab4-42b04310405f-body_1_0_positions",
      "componentType": 5126,
      "count": 24,
      "min": [
        -4.337222099304199,
        3.018458366394043,
        22.113332748413086
      ],
      "max": [
        -3.33722186088562,
        5.1460161209106445,
        22.163333892822266
      ],
      "type": "VEC3",
      "bufferView": 0,
      "byteOffset": 38976
    },
    {
      "name": "product-68d337df-c754-4d79-bab4-42b04310405f-body_1_0_normals",
      "componentType": 5126,
      "count": 24,
      "min": [
        -1,
        -1,
        -1
      ],
      "max": [
        1,
        1,
        1
      ],
      "type": "VEC3",
      "bufferView": 1,
      "byteOffset": 38976
    },
    {
      "name": "product-68d337df-c754-4d79-bab4-42b04310405f-body_1_0_indices",
      "componentType": 5123,
      "count": 36,
      "min": [
        0
      ],
      "max": [
        23
      ],
      "type": "SCALAR",
      "bufferView": 2,
      "byteOffset": 9744
    },
    {
      "name": "product-f6e70469-423f-4496-9707-081caae32554-body_1_0_positions",
      "componentType": 5126,
      "count": 94,
      "min": [
        -4.387221813201904,
        2.9684581756591797,
        20.670000076293945
      ],
      "max": [
        -1.639459252357483,
        5.19601583480835,
        23.533504486083984
      ],
      "type": "VEC3",
      "bufferView": 0,
      "byteOffset": 39264
    },
    {
      "name": "product-f6e70469-423f-4496-9707-081caae32554-body_1_0_normals",
      "componentType": 5126,
      "count": 94,
      "min": [
        -1,
        -1,
        -1
      ],
      "max": [
        1,
        1,
        1
      ],
      "type": "VEC3",
      "bufferView": 1,
      "byteOffset": 39264
    },
    {
      "name": "product-f6e70469-423f-4496-9707-081caae32554-body_1_0_indices",
      "componentType": 5123,
      "count": 144,
      "min": [
        0
      ],
      "max": [
        93
      ],
      "type": "SCALAR",
      "bufferView": 2,
      "byteOffset": 9816
    },
    {
      "name": "product-2a0f1bc1-3a46-4b18-a104-bf8b97f4266a-body_1_0_positions",
      "componentType": 5126,
      "count": 36,
      "min": [
        -3.33722186088562,
        4.008458137512207,
        20.670000076293945
      ],
      "max": [
        -1.639459252357483,
        4.05845832824707,
        22.21006202697754
      ],
      "type": "VEC3",
      "bufferView": 0,
      "byteOffset": 40392
    },
    {
      "name": "product-2a0f1bc1-3a46-4b18-a104-bf8b97f4266a-body_1_0_normals",
      "componentType": 5126,
      "count": 36,
      "min": [
        -1,
        -1,
        -1
      ],
      "max": [
        1,
        1,
        1
      ],
      "type": "VEC3",
      "bufferView": 1,
      "byteOffset": 40392
    },
    {
      "name": "product-2a0f1bc1-3a46-4b18-a104-bf8b97f4266a-body_1_0_indices",
      "componentType": 5123,
      "count": 60,
      "min": [
        0
      ],
      "max": [
        35
      ],
      "type": "SCALAR",
      "bufferView": 2,
      "byteOffset": 10104
    },
    {
      "name": "product-948b4a8a-80b1-4fc1-98c2-c40fe528a385-body_1_0_positions",
      "componentType": 5126,
      "count": 24,
      "min": [
        -3.33722186088562,
        4.05845832824707,
        21.810062408447266
      ],
      "max": [
        -3.287221908569336,
        4.106015682220459,
        22.21006202697754
      ],
      "type": "VEC3",
      "bufferView": 0,
      "byteOffset": 40824
    },
    {
      "name": "product-948b4a8a-80b1-4fc1-98c2-c40fe528a385-body_1_0_normals",
      "componentType": 5126,
      "count": 24,
      "min": [
        -1,
        -1,
        -1
      ],
      "max": [
        1,
        1,
        1
      ],
      "type": "VEC3",
      "bufferView": 1,
      "byteOffset": 40824
    },
    {
      "name": "product-948b4a8a-80b1-4fc1-98c2-c40fe528a385-body_1_0_indices",
      "componentType": 5123,
      "count": 36,
      "min": [
        0
      ],
      "max": [
        23
      ],
      "type": "SCALAR",
      "bufferView": 2,
      "byteOffset": 10224
    },
    {
      "name": "product-9c5ca310-aec9-45d2-a337-bea0e23de2ed-body_1_0_positions",
      "componentType": 5126,
      "count": 24,
      "min": [
        -3.33722186088562,
        4.106015682220459,
        21.914302825927734
      ],
      "max": [
        -1.8372219800949097,
        4.156015872955322,
        23.533504486083984
      ],
      "type": "VEC3",
      "bufferView": 0,
      "byteOffset": 41112
    },
    {
      "name": "product-9c5ca310-aec9-45d2-a337-bea0e23de2ed-body_1_0_normals",
      "componentType": 5126,
      "count": 24,
      "min": [
        -1,
        -1,
        -0.8012802004814148
      ],
      "max": [
        1,
        1,
        0.8012802004814148
      ],
      "type": "VEC3",
      "bufferView": 1,
      "byteOffset": 41112
    },
    {
      "name": "product-9c5ca310-aec9-45d2-a337-bea0e23de2ed-body_1_0_indices",
      "componentType": 5123,
      "count": 36,
      "min": [
        0
      ],
      "max": [
        23
      ],
      "type": "SCALAR",
      "bufferView": 2,
      "byteOffset": 10296
    }
  ],
  "asset": {
    "generator": "obj2gltf",
    "version": "2.0"
  },
  "buffers": [
    {
      "name": "Ground_Floor+1+IfcStair+0o2v3tUcH3TeUeYGf7Mk3W",
      "byteLength": 93168,
      "uri": "data:application/octet-stream;base64,"
    }
  ],
  "bufferViews": [
    {
      "name": "bufferView_0",
      "buffer": 0,
      "byteLength": 41400,
      "byteOffset": 0,
      "byteStride": 12,
      "target": 34962
    },
    {
      "name": "bufferView_1",
      "buffer": 0,
      "byteLength": 41400,
      "byteOffset": 41400,
      "byteStride": 12,
      "target": 34962
    },
    {
      "name": "bufferView_2",
      "buffer": 0,
      "byteLength": 10368,
      "byteOffset": 82800,
      "target": 34963
    }
  ],
  "materials": [
    {
      "name": "IfcStairFlight",
      "pbrMetallicRoughness": {
        "baseColorFactor": [
          0.7,
          0.7,
          0.7,
          1
        ],
        "metallicFactor": 0,
        "roughnessFactor": 1
      },
      "emissiveFactor": [
        0,
        0,
        0
      ],
      "alphaMode": "OPAQUE",
      "doubleSided": false
    },
    {
      "name": "IfcRailing",
      "pbrMetallicRoughness": {
        "baseColorFactor": [
          0.65,
          0.6,
          0.6,
          1
        ],
        "metallicFactor": 0,
        "roughnessFactor": 1
      },
      "emissiveFactor": [
        0,
        0,
        0
      ],
      "alphaMode": "OPAQUE",
      "doubleSided": false
    },
    {
      "name": "IfcSlab",
      "pbrMetallicRoughness": {
        "baseColorFactor": [
          0.4,
          0.4,
          0.4,
          1
        ],
        "metallicFactor": 0,
        "roughnessFactor": 1
      },
      "emissiveFactor": [
        0,
        0,
        0
      ],
      "alphaMode": "OPAQUE",
      "doubleSided": false
    },
    {
      "name": "IfcMember",
      "pbrMetallicRoughness": {
        "baseColorFactor": [
          0.65,
          0.6,
          0.6,
          1
        ],
        "metallicFactor": 0,
        "roughnessFactor": 1
      },
      "emissiveFactor": [
        0,
        0,
        0
      ],
      "alphaMode": "OPAQUE",
      "doubleSided": false
    }
  ],
  "meshes": [
    {
      "name": "product-9e78f0b9-97bd-45e0-b482-7d7702e4c7cc-body_1",
      "primitives": [
        {
          "attributes": {
            "POSITION": 0,
            "NORMAL": 1
          },
          "indices": 2,
          "material": 0,
          "mode": 4
        }
      ]
    },
    {
      "name": "product-a344894b-ffd7-4ad6-ab57-e459d276711d-body_1",
      "primitives": [
        {
          "attributes": {
            "POSITION": 3,
            "NORMAL": 4
          },
          "indices": 5,
          "material": 0,
          "mode": 4
        }
      ]
    },
    {
      "name": "product-c64ffe2b-9841-4b2e-a8a3-9f9865af9423-body_1",
      "primitives": [
        {
          "attributes": {
            "POSITION": 6,
            "NORMAL": 7
          },
          "indices": 8,
          "material": 1,
          "mode": 4
        }
      ]
    },
    {
      "name": "product-21156226-500e-45de-8374-f41437e70912-body_1",
      "primitives": [
        {
          "attributes": {
            "POSITION": 9,
            "NORMAL": 10
          },
          "indices": 11,
          "material": 1,
          "mode": 4
        }
      ]
    },
    {
      "name": "product-68d337df-c754-4d79-bab4-42b04310405f-body_1",
      "primitives": [
        {
          "attributes": {
            "POSITION": 12,
            "NORMAL": 13
          },
          "indices": 14,
          "material": 2,
          "mode": 4
        }
      ]
    },
    {
      "name": "product-f6e70469-423f-4496-9707-081caae32554-body_1",
      "primitives": [
        {
          "attributes": {
            "POSITION": 15,
            "NORMAL": 16
          },
          "indices": 17,
          "material": 3,
          "mode": 4
        }
      ]
    },
    {
      "name": "product-2a0f1bc1-3a46-4b18-a104-bf8b97f4266a-body_1",
      "primitives": [
        {
          "attributes": {
            "POSITION": 18,
            "NORMAL": 19
          },
          "indices": 20,
          "material": 3,
          "mode": 4
        }
      ]
    },
    {
      "name": "product-948b4a8a-80b1-4fc1-98c2-c40fe528a385-body_1",
      "primitives": [
        {
          "attributes": {
            "POSITION": 21,
            "NORMAL": 22
          },
          "indices": 23,
          "material": 3,
          "mode": 4
        }
      ]
    },
    {
      "name": "product-9c5ca310-aec9-45d2-a337-bea0e23de2ed-body_1",
      "primitives": [
        {
          "attributes": {
            "POSITION": 24,
            "NORMAL": 25
          },
          "indices": 26,
          "material": 3,
          "mode": 4
        }
      ]
    }
  ],
  "nodes": [
    {
      "name": "product-9e78f0b9-97bd-45e0-b482-7d7702e4c7cc-body",
      "mesh": 0
    },
    {
      "name": "product-a344894b-ffd7-4ad6-ab57-e459d276711d-body",
      "mesh": 1
    },
    {
      "name": "product-c64ffe2b-9841-4b2e-a8a3-9f9865af9423-body",
      "mesh": 2
    },
    {
      "name": "product-21156226-500e-45de-8374-f41437e70912-body",
      "mesh": 3
    },
    {
      "name": "product-68d337df-c754-4d79-bab4-42b04310405f-body",
      "mesh": 4
    },
    {
      "name": "product-f6e70469-423f-4496-9707-081caae32554-body",
      "mesh": 5
    },
    {
      "name": "product-2a0f1bc1-3a46-4b18-a104-bf8b97f4266a-body",
      "mesh": 6
    },
    {
      "name": "product-948b4a8a-80b1-4fc1-98c2-c40fe528a385-body",
      "mesh": 7
    },
    {
      "name": "product-9c5ca310-aec9-45d2-a337-bea0e23de2ed-body",
      "mesh": 8
    }
  ],
  "scene": 0,
  "scenes": [
    {
      "nodes": [
        0,
        1,
        2,
        3,
        4,
        5,
        6,
        7,
        8
      ]
    }
  ]
}
