{
  "accessors": [
    {
      "name": "product-0a625449-2be0-41c0-8b12-f44f00031f41-body_1_0_positions",
      "componentType": 5126,
      "count": 360,
      "min": [
        -3.349721908569336,
        3.018458366394043,
        17.8700008392334
      ],
      "max": [
        -1.639459252357483,
        4.008458137512207,
        19.31333351135254
      ],
      "type": "VEC3",
      "bufferView": 0,
      "byteOffset": 0
    },
    {
      "name": "product-0a625449-2be0-41c0-8b12-f44f00031f41-body_1_0_normals",
      "componentType": 5126,
      "count": 360,
      "min": [
        -1,
        -1,
        -1
      ],
      "max": [
        1,
        1,
        1
      ],
      "type": "VEC3",
      "bufferView": 1,
      "byteOffset": 0
    },
    {
      "name": "product-0a625449-2be0-41c0-8b12-f44f00031f41-body_1_0_indices",
      "componentType": 5123,
      "count": 540,
      "min": [
        0
      ],
      "max": [
        359
      ],
      "type": "SCALAR",
      "bufferView": 2,
      "byteOffset": 0
    },
    {
      "name": "product-7fca0966-4fee-4e9a-bf97-e919587c94e7-body_1_0_positions",
      "componentType": 5126,
      "count": 312,
      "min": [
        -3.33722186088562,
        4.156015872955322,
        19.31333351135254
      ],
      "max": [
        -1.8247219324111938,
        5.1460161209106445,
        20.6200008392334
      ],
      "type": "VEC3",
      "bufferView": 0,
      "byteOffset": 4320
    },
    {
      "name": "product-7fca0966-4fee-4e9a-bf97-e919587c94e7-body_1_0_normals",
      "componentType": 5126,
      "count": 312,
      "min": [
        -1,
        -1,
        -1
      ],
      "max": [
        1,
        1,
        1
      ],
      "type": "VEC3",
      "bufferView": 1,
      "byteOffset": 4320
    },
    {
      "name": "product-7fca0966-4fee-4e9a-bf97-e919587c94e7-body_1_0_indices",
      "componentType": 5123,
      "count": 468,
      "min": [
        0
      ],
      "max": [
        311
      ],
      "type": "SCALAR",
      "bufferView": 2,
      "byteOffset": 1080
    },
    {
      "name": "product-e8ee3a86-c99c-43ce-9a54-8bc35e8634ad-body_1_0_positions",
      "componentType": 5126,
      "count": 24,
      "min": [
        -4.337222099304199,
        3.018458366394043,
        19.31333351135254
      ],
      "max": [
        -3.33722186088562,
        5.1460161209106445,
        19.363332748413086
      ],
      "type": "VEC3",
      "bufferView": 0,
      "byteOffset": 8064
    },
    {
      "name": "product-e8ee3a86-c99c-43ce-9a54-8bc35e8634ad-body_1_0_normals",
      "componentType": 5126,
      "count": 24,
      "min": [
        -1,
        -1,
        -1
      ],
      "max": [
        1,
        1,
        1
      ],
      "type": "VEC3",
      "bufferView": 1,
      "byteOffset": 8064
    },
    {
      "name": "product-e8ee3a86-c99c-43ce-9a54-8bc35e8634ad-body_1_0_indices",
      "componentType": 5123,
      "count": 36,
      "min": [
        0
      ],
      "max": [
        23
      ],
      "type": "SCALAR",
      "bufferView": 2,
      "byteOffset": 2016
    },
    {
      "name": "product-20a3fabf-2bae-4ef6-a97a-b79f0c0975e1-body_1_0_positions",
      "componentType": 5126,
      "count": 94,
      "min": [
        -4.387221813201904,
        2.9684581756591797,
        17.8700008392334
      ],
      "max": [
        -1.639459252357483,
        5.19601583480835,
        20.733505249023438
      ],
      "type": "VEC3",
      "bufferView": 0,
      "byteOffset": 8352
    },
    {
      "name": "product-20a3fabf-2bae-4ef6-a97a-b79f0c0975e1-body_1_0_normals",
      "componentType": 5126,
      "count": 94,
      "min": [
        -1,
        -1,
        -1
      ],
      "max": [
        1,
        1,
        1
      ],
      "type": "VEC3",
      "bufferView": 1,
      "byteOffset": 8352
    },
    {
      "name": "product-20a3fabf-2bae-4ef6-a97a-b79f0c0975e1-body_1_0_indices",
      "componentType": 5123,
      "count": 144,
      "min": [
        0
      ],
      "max": [
        93
      ],
      "type": "SCALAR",
      "bufferView": 2,
      "byteOffset": 2088
    },
    {
      "name": "product-4d538c4a-6110-4872-b04e-fe787a6a7183-body_1_0_positions",
      "componentType": 5126,
      "count": 36,
      "min": [
        -3.33722186088562,
        4.008458137512207,
        17.8700008392334
      ],
      "max": [
        -1.639459252357483,
        4.05845832824707,
        19.410062789916992
      ],
      "type": "VEC3",
      "bufferView": 0,
      "byteOffset": 9480
    },
    {
      "name": "product-4d538c4a-6110-4872-b04e-fe787a6a7183-body_1_0_normals",
      "componentType": 5126,
      "count": 36,
      "min": [
        -1,
        -1,
        -1
      ],
      "max": [
        1,
        1,
        1
      ],
      "type": "VEC3",
      "bufferView": 1,
      "byteOffset": 9480
    },
    {
      "name": "product-4d538c4a-6110-4872-b04e-fe787a6a7183-body_1_0_indices",
      "componentType": 5123,
      "count": 60,
      "min": [
        0
      ],
      "max": [
        35
      ],
      "type": "SCALAR",
      "bufferView": 2,
      "byteOffset": 2376
    },
    {
      "name": "product-c022e5a7-b115-43e1-aab5-7577753292be-body_1_0_positions",
      "componentType": 5126,
      "count": 24,
      "min": [
        -3.33722186088562,
        4.05845832824707,
        19.01006317138672
      ],
      "max": [
        -3.287221908569336,
        4.106015682220459,
        19.410062789916992
      ],
      "type": "VEC3",
      "bufferView": 0,
      "byteOffset": 9912
    },
    {
      "name": "product-c022e5a7-b115-43e1-aab5-7577753292be-body_1_0_normals",
      "componentType": 5126,
      "count": 24,
      "min": [
        -1,
        -1,
        -1
      ],
      "max": [
        1,
        1,
        1
      ],
      "type": "VEC3",
      "bufferView": 1,
      "byteOffset": 9912
    },
    {
      "name": "product-c022e5a7-b115-43e1-aab5-7577753292be-body_1_0_indices",
      "componentType": 5123,
      "count": 36,
      "min": [
        0
      ],
      "max": [
        23
      ],
      "type": "SCALAR",
      "bufferView": 2,
      "byteOffset": 2496
    },
    {
      "name": "product-d8fc7415-1de8-46b0-bc02-cfb94ec77071-body_1_0_positions",
      "componentType": 5126,
      "count": 24,
      "min": [
        -3.33722186088562,
        4.106015682220459,
        19.114303588867188
      ],
      "max": [
        -1.8372219800949097,
        4.156015872955322,
        20.733505249023438
      ],
      "type": "VEC3",
      "bufferView": 0,
      "byteOffset": 10200
    },
    {
      "name": "product-d8fc7415-1de8-46b0-bc02-cfb94ec77071-body_1_0_normals",
      "componentType": 5126,
      "count": 24,
      "min": [
        -1,
        -1,
        -0.8012802004814148
      ],
      "max": [
        1,
        1,
        0.8012802004814148
      ],
      "type": "VEC3",
      "bufferView": 1,
      "byteOffset": 10200
    },
    {
      "name": "product-d8fc7415-1de8-46b0-bc02-cfb94ec77071-body_1_0_indices",
      "componentType": 5123,
      "count": 36,
      "min": [
        0
      ],
      "max": [
        23
      ],
      "type": "SCALAR",
      "bufferView": 2,
      "byteOffset": 2568
    },
    {
      "name": "product-f7de0fbb-545b-4400-aa9b-3ffd865adf5b-body_1_0_positions",
      "componentType": 5126,
      "count": 928,
      "min": [
        -3.3876218795776367,
        3.9580583572387695,
        18.05666732788086
      ],
      "max": [
        -1.639459252357483,
        4.206416130065918,
        21.770000457763672
      ],
      "type": "VEC3",
      "bufferView": 0,
      "byteOffset": 10488
    },
    {
      "name": "product-f7de0fbb-545b-4400-aa9b-3ffd865adf5b-body_1_0_normals",
      "componentType": 5126,
      "count": 928,
      "min": [
        -1,
        -1,
        -1
      ],
      "max": [
        1,
        1,
        1
      ],
      "type": "VEC3",
      "bufferView": 1,
      "byteOffset": 10488
    },
    {
      "name": "product-f7de0fbb-545b-4400-aa9b-3ffd865adf5b-body_1_0_indices",
      "componentType": 5123,
      "count": 1392,
      "min": [
        0
      ],
      "max": [
        927
      ],
      "type": "SCALAR",
      "bufferView": 2,
      "byteOffset": 2640
    },
    {
      "name": "product-a03f06d7-4045-4032-9df8-022492984c97-body_1_0_positions",
      "componentType": 5126,
      "count": 1648,
      "min": [
        -4.336822032928467,
        3.0188581943511963,
        18.05666732788086
      ],
      "max": [
        -1.639459252357483,
        5.145616054534912,
        21.770000457763672
      ],
      "type": "VEC3",
      "bufferView": 0,
      "byteOffset": 21624
    },
    {
      "name": "product-a03f06d7-4045-4032-9df8-022492984c97-body_1_0_normals",
      "componentType": 5126,
      "count": 1648,
      "min": [
        -1,
        -1,
        -1
      ],
      "max": [
        1,
        1,
        1
      ],
      "type": "VEC3",
      "bufferView": 1,
      "byteOffset": 21624
    },
    {
      "name": "product-a03f06d7-4045-4032-9df8-022492984c97-body_1_0_indices",
      "componentType": 5123,
      "count": 2472,
      "min": [
        0
      ],
      "max": [
        1647
      ],
      "type": "SCALAR",
      "bufferView": 2,
      "byteOffset": 5424
    }
  ],
  "asset": {
    "generator": "obj2gltf",
    "version": "2.0"
  },
  "buffers": [
    {
      "name": "Ground_Floor+0+IfcStair+3$PnmgBib5ixF0SwQo8_pb",
      "byteLength": 93168,
      "uri": "data:application/octet-stream;base64,"
    }
  ],
  "bufferViews": [
    {
      "name": "bufferView_0",
      "buffer": 0,
      "byteLength": 41400,
      "byteOffset": 0,
      "byteStride": 12,
      "target": 34962
    },
    {
      "name": "bufferView_1",
      "buffer": 0,
      "byteLength": 41400,
      "byteOffset": 41400,
      "byteStride": 12,
      "target": 34962
    },
    {
      "name": "bufferView_2",
      "buffer": 0,
      "byteLength": 10368,
      "byteOffset": 82800,
      "target": 34963
    }
  ],
  "materials": [
    {
      "name": "IfcStairFlight",
      "pbrMetallicRoughness": {
        "baseColorFactor": [
          0.7,
          0.7,
          0.7,
          1
        ],
        "metallicFactor": 0,
        "roughnessFactor": 1
      },
      "emissiveFactor": [
        0,
        0,
        0
      ],
      "alphaMode": "OPAQUE",
      "doubleSided": false
    },
    {
      "name": "IfcSlab",
      "pbrMetallicRoughness": {
        "baseColorFactor": [
          0.4,
          0.4,
          0.4,
          1
        ],
        "metallicFactor": 0,
        "roughnessFactor": 1
      },
      "emissiveFactor": [
        0,
        0,
        0
      ],
      "alphaMode": "OPAQUE",
      "doubleSided": false
    },
    {
      "name": "IfcMember",
      "pbrMetallicRoughness": {
        "baseColorFactor": [
          0.65,
          0.6,
          0.6,
          1
        ],
        "metallicFactor": 0,
        "roughnessFactor": 1
      },
      "emissiveFactor": [
        0,
        0,
        0
      ],
      "alphaMode": "OPAQUE",
      "doubleSided": false
    },
    {
      "name": "IfcRailing",
      "pbrMetallicRoughness": {
        "baseColorFactor": [
          0.65,
          0.6,
          0.6,
          1
        ],
        "metallicFactor": 0,
        "roughnessFactor": 1
      },
      "emissiveFactor": [
        0,
        0,
        0
      ],
      "alphaMode": "OPAQUE",
      "doubleSided": false
    }
  ],
  "meshes": [
    {
      "name": "product-0a625449-2be0-41c0-8b12-f44f00031f41-body_1",
      "primitives": [
        {
          "attributes": {
            "POSITION": 0,
            "NORMAL": 1
          },
          "indices": 2,
          "material": 0,
          "mode": 4
        }
      ]
    },
    {
      "name": "product-7fca0966-4fee-4e9a-bf97-e919587c94e7-body_1",
      "primitives": [
        {
          "attributes": {
            "POSITION": 3,
            "NORMAL": 4
          },
          "indices": 5,
          "material": 0,
          "mode": 4
        }
      ]
    },
    {
      "name": "product-e8ee3a86-c99c-43ce-9a54-8bc35e8634ad-body_1",
      "primitives": [
        {
          "attributes": {
            "POSITION": 6,
            "NORMAL": 7
          },
          "indices": 8,
          "material": 1,
          "mode": 4
        }
      ]
    },
    {
      "name": "product-20a3fabf-2bae-4ef6-a97a-b79f0c0975e1-body_1",
      "primitives": [
        {
          "attributes": {
            "POSITION": 9,
            "NORMAL": 10
          },
          "indices": 11,
          "material": 2,
          "mode": 4
        }
      ]
    },
    {
      "name": "product-4d538c4a-6110-4872-b04e-fe787a6a7183-body_1",
      "primitives": [
        {
          "attributes": {
            "POSITION": 12,
            "NORMAL": 13
          },
          "indices": 14,
          "material": 2,
          "mode": 4
        }
      ]
    },
    {
      "name": "product-c022e5a7-b115-43e1-aab5-7577753292be-body_1",
      "primitives": [
        {
          "attributes": {
            "POSITION": 15,
            "NORMAL": 16
          },
          "indices": 17,
          "material": 2,
          "mode": 4
        }
      ]
    },
    {
      "name": "product-d8fc7415-1de8-46b0-bc02-cfb94ec77071-body_1",
      "primitives": [
        {
          "attributes": {
            "POSITION": 18,
            "NORMAL": 19
          },
          "indices": 20,
          "material": 2,
          "mode": 4
        }
      ]
    },
    {
      "name": "product-f7de0fbb-545b-4400-aa9b-3ffd865adf5b-body_1",
      "primitives": [
        {
          "attributes": {
            "POSITION": 21,
            "NORMAL": 22
          },
          "indices": 23,
          "material": 3,
          "mode": 4
        }
      ]
    },
    {
      "name": "product-a03f06d7-4045-4032-9df8-022492984c97-body_1",
      "primitives": [
        {
          "attributes": {
            "POSITION": 24,
            "NORMAL": 25
          },
          "indices": 26,
          "material": 3,
          "mode": 4
        }
      ]
    }
  ],
  "nodes": [
    {
      "name": "product-0a625449-2be0-41c0-8b12-f44f00031f41-body",
      "mesh": 0
    },
    {
      "name": "product-7fca0966-4fee-4e9a-bf97-e919587c94e7-body",
      "mesh": 1
    },
    {
      "name": "product-e8ee3a86-c99c-43ce-9a54-8bc35e8634ad-body",
      "mesh": 2
    },
    {
      "name": "product-20a3fabf-2bae-4ef6-a97a-b79f0c0975e1-body",
      "mesh": 3
    },
    {
      "name": "product-4d538c4a-6110-4872-b04e-fe787a6a7183-body",
      "mesh": 4
    },
    {
      "name": "product-c022e5a7-b115-43e1-aab5-7577753292be-body",
      "mesh": 5
    },
    {
      "name": "product-d8fc7415-1de8-46b0-bc02-cfb94ec77071-body",
      "mesh": 6
    },
    {
      "name": "product-f7de0fbb-545b-4400-aa9b-3ffd865adf5b-body",
      "mesh": 7
    },
    {
      "name": "product-a03f06d7-4045-4032-9df8-022492984c97-body",
      "mesh": 8
    }
  ],
  "scene": 0,
  "scenes": [
    {
      "nodes": [
        0,
        1,
        2,
        3,
        4,
        5,
        6,
        7,
        8
      ]
    }
  ]
}
