{
  "accessors": [
    {
      "name": "product-ca31cf7a-c19a-4c8b-ba85-47704b47bed2-body_1_0_positions",
      "componentType": 5126,
      "count": 60,
      "min": [
        0.04831317439675331,
        -14.499214172363281,
        17.8700008392334
      ],
      "max": [
        0.8957794904708862,
        -13.97701644897461,
        20.8700008392334
      ],
      "type": "VEC3",
      "bufferView": 0,
      "byteOffset": 0
    },
    {
      "name": "product-ca31cf7a-c19a-4c8b-ba85-47704b47bed2-body_1_0_normals",
      "componentType": 5126,
      "count": 60,
      "min": [
        -0.7071067690849304,
        -1,
        -1
      ],
      "max": [
        0.7071067690849304,
        1,
        1
      ],
      "type": "VEC3",
      "bufferView": 1,
      "byteOffset": 0
    },
    {
      "name": "product-ca31cf7a-c19a-4c8b-ba85-47704b47bed2-body_1_0_indices",
      "componentType": 5123,
      "count": 120,
      "min": [
        0
      ],
      "max": [
        59
      ],
      "type": "SCALAR",
      "bufferView": 2,
      "byteOffset": 0
    }
  ],
  "asset": {
    "generator": "obj2gltf",
    "version": "2.0"
  },
  "buffers": [
    {
      "name": "Ground_Floor+6+IfcWallStandardCase+3ACSzwmPfCYxg5Ht1BHxxI",
      "byteLength": 1680,
      "uri": "data:application/octet-stream;base64,"
    }
  ],
  "bufferViews": [
    {
      "name": "bufferView_0",
      "buffer": 0,
      "byteLength": 720,
      "byteOffset": 0,
      "byteStride": 12,
      "target": 34962
    },
    {
      "name": "bufferView_1",
      "buffer": 0,
      "byteLength": 720,
      "byteOffset": 720,
      "byteStride": 12,
      "target": 34962
    },
    {
      "name": "bufferView_2",
      "buffer": 0,
      "byteLength": 240,
      "byteOffset": 1440,
      "target": 34963
    }
  ],
  "materials": [
    {
      "name": "surface-style-10445-ifcwallstandardcase",
      "pbrMetallicRoughness": {
        "baseColorFactor": [
          0.5,
          0.5,
          0.5,
          1
        ],
        "metallicFactor": 0,
        "roughnessFactor": 1
      },
      "emissiveFactor": [
        0,
        0,
        0
      ],
      "alphaMode": "OPAQUE",
      "doubleSided": false
    }
  ],
  "meshes": [
    {
      "name": "product-ca31cf7a-c19a-4c8b-ba85-47704b47bed2-body_1",
      "primitives": [
        {
          "attributes": {
            "POSITION": 0,
            "NORMAL": 1
          },
          "indices": 2,
          "material": 0,
          "mode": 4
        }
      ]
    }
  ],
  "nodes": [
    {
      "name": "product-ca31cf7a-c19a-4c8b-ba85-47704b47bed2-body",
      "mesh": 0
    }
  ],
  "scene": 0,
  "scenes": [
    {
      "nodes": [
        0
      ]
    }
  ]
}
