{
  "accessors": [
    {
      "name": "product-ca31cf7a-c19a-4c8b-ba85-47704b4798f4-body_1_0_positions",
      "componentType": 5126,
      "count": 30,
      "min": [
        9.155831336975098,
        16.57593536376953,
        17.8700008392334
      ],
      "max": [
        11.217350006103516,
        16.64593505859375,
        20.719999313354492
      ],
      "type": "VEC3",
      "bufferView": 0,
      "byteOffset": 0
    },
    {
      "name": "product-ca31cf7a-c19a-4c8b-ba85-47704b4798f4-body_1_0_normals",
      "componentType": 5126,
      "count": 30,
      "min": [
        -1,
        -1,
        -1
      ],
      "max": [
        0.9999403953552246,
        1,
        1
      ],
      "type": "VEC3",
      "bufferView": 1,
      "byteOffset": 0
    },
    {
      "name": "product-ca31cf7a-c19a-4c8b-ba85-47704b4798f4-body_1_0_indices",
      "componentType": 5123,
      "count": 48,
      "min": [
        0
      ],
      "max": [
        29
      ],
      "type": "SCALAR",
      "bufferView": 2,
      "byteOffset": 0
    }
  ],
  "asset": {
    "generator": "obj2gltf",
    "version": "2.0"
  },
  "buffers": [
    {
      "name": "Ground_Floor+62+IfcWallStandardCase+3ACSzwmPfCYxg5Ht1BHvZq",
      "byteLength": 816,
      "uri": "data:application/octet-stream;base64,"
    }
  ],
  "bufferViews": [
    {
      "name": "bufferView_0",
      "buffer": 0,
      "byteLength": 360,
      "byteOffset": 0,
      "byteStride": 12,
      "target": 34962
    },
    {
      "name": "bufferView_1",
      "buffer": 0,
      "byteLength": 360,
      "byteOffset": 360,
      "byteStride": 12,
      "target": 34962
    },
    {
      "name": "bufferView_2",
      "buffer": 0,
      "byteLength": 96,
      "byteOffset": 720,
      "target": 34963
    }
  ],
  "materials": [
    {
      "name": "surface-style-10445-ifcwallstandardcase",
      "pbrMetallicRoughness": {
        "baseColorFactor": [
          0.5,
          0.5,
          0.5,
          1
        ],
        "metallicFactor": 0,
        "roughnessFactor": 1
      },
      "emissiveFactor": [
        0,
        0,
        0
      ],
      "alphaMode": "OPAQUE",
      "doubleSided": false
    }
  ],
  "meshes": [
    {
      "name": "product-ca31cf7a-c19a-4c8b-ba85-47704b4798f4-body_1",
      "primitives": [
        {
          "attributes": {
            "POSITION": 0,
            "NORMAL": 1
          },
          "indices": 2,
          "material": 0,
          "mode": 4
        }
      ]
    }
  ],
  "nodes": [
    {
      "name": "product-ca31cf7a-c19a-4c8b-ba85-47704b4798f4-body",
      "mesh": 0
    }
  ],
  "scene": 0,
  "scenes": [
    {
      "nodes": [
        0
      ]
    }
  ]
}
